<svg width="901" height="148" viewBox="0 0 901 148" fill="none" xmlns="http://www.w3.org/2000/svg">
<path d="M182.095 34.8004C185.983 34.8004 189.875 35.3548 193.686 36.3898H224.652V51.555C220.682 51.555 216.712 51.6364 212.661 51.6364C214.569 55.0517 215.836 59.2578 215.836 63.3088C215.836 80.9356 201.466 91.7318 182.091 91.7318C178.834 91.7318 175.896 91.414 173.279 90.8596C172.008 92.2087 170.5 94.1159 170.5 96.2597C170.5 98.8802 172.725 100.229 175.342 100.229H197.015C212.34 100.229 225.202 106.106 225.202 122.62C225.202 139.77 207.18 147.473 184.711 147.473C163.115 147.473 147.155 141.278 147.155 126.83C147.155 119.922 151.365 114.286 157.715 110.712C155.253 109.045 152.95 106.106 152.95 100.706C152.95 94.9106 156.761 90.4642 161.603 86.6535C153.582 81.8892 148.264 73.7096 148.264 63.3088C148.264 45.682 162.716 34.8043 182.087 34.8043L182.095 34.8004ZM169.472 116.104C167.724 117.612 166.057 119.597 166.057 122.772C166.057 128.331 172.248 130.951 184.556 130.951C199.008 130.951 205.835 128.094 205.835 122.772C205.835 118.643 202.183 116.104 196.387 116.104H169.472ZM182.095 76.5628C191.623 76.5628 197.26 71.3217 197.26 63.301C197.26 55.2029 191.623 50.0431 182.095 50.0431C172.566 50.0431 166.852 55.2029 166.852 63.301C166.852 71.3217 172.57 76.5628 182.095 76.5628ZM268.162 34.8004C291.585 34.8004 308.893 52.0318 308.893 74.5005C308.893 96.9691 291.585 114.2 268.162 114.2C244.74 114.2 227.431 97.0505 227.431 74.5005C227.431 51.9504 244.818 34.8004 268.162 34.8004ZM268.162 95.779C280.153 95.779 288.646 86.7272 288.646 74.5005C288.646 62.3513 280.153 53.2995 268.162 53.2995C256.253 53.2995 247.678 62.3513 247.678 74.5005C247.678 86.7272 256.253 95.779 268.162 95.779ZM357.862 34.8004C381.285 34.8004 398.594 52.0318 398.594 74.5005C398.594 96.9691 381.285 114.2 357.862 114.2C334.44 114.2 317.131 97.0505 317.131 74.5005C317.131 51.9504 334.518 34.8004 357.862 34.8004ZM357.862 95.779C369.853 95.779 378.346 86.7272 378.346 74.5005C378.346 62.3513 369.853 53.2995 357.862 53.2995C345.954 53.2995 337.379 62.3513 337.379 74.5005C337.379 86.7272 345.954 95.779 357.862 95.779ZM406.564 74.419C406.564 51.2332 421.888 34.8004 443.484 34.8004C455.711 34.8004 463.573 39.2469 468.655 45.6006V0.736968H488.666V112.611H468.655L468.26 104.513C463.177 110.39 454.684 114.2 443.488 114.2C421.892 114.2 406.568 97.4459 406.568 74.4229L406.564 74.419ZM447.69 53.063C435.541 53.063 427.048 62.0334 427.048 74.3415C427.048 86.4093 435.541 95.9379 447.69 95.9379C459.681 95.9379 468.415 86.4093 468.415 74.3415C468.415 62.1923 459.681 53.063 447.69 53.063ZM502.075 112.611V0.818376H522.4V64.2585H534.309L551.459 36.3898H574.086L550.346 73.3103L579.009 112.611H555.033L533.677 81.8853H522.404M522.404 81.8853V112.611H502.075M584.654 11.9325C584.654 5.02446 589.418 0.182617 596.326 0.182617C603.234 0.182617 608.076 4.94693 608.076 11.9325C608.076 18.8406 603.234 23.6049 596.326 23.6049C589.418 23.6049 584.654 18.8406 584.654 11.9325ZM586.162 112.611V36.3898H606.568V112.611H586.162ZM692.074 64.7354V112.611H671.667V69.9726C671.667 59.4128 664.841 53.6949 655.948 53.6949C646.974 53.6949 639.034 59.4128 639.034 69.9726V112.611H618.709V36.3898H638.085L638.48 45.2013C642.45 39.8826 650.629 34.8004 661.984 34.8004C679.61 34.8004 692.078 46.3914 692.078 64.7354H692.074ZM700.222 74.419C700.222 51.2332 715.546 34.8004 737.143 34.8004C749.369 34.8004 757.231 39.2469 762.313 45.6006V0.736968H782.324V112.611H762.313L761.918 104.513C756.836 110.39 748.342 114.2 737.147 114.2C715.55 114.2 700.226 97.4459 700.226 74.4229L700.222 74.419ZM741.349 53.063C729.2 53.063 720.706 62.0334 720.706 74.3415C720.706 86.4093 729.2 95.9379 741.349 95.9379C753.339 95.9379 762.073 86.4093 762.073 74.3415C762.073 62.1923 753.339 53.063 741.349 53.063Z" fill="#C3D9CA"/>
<path opacity="0.8" d="M32.4355 54.3038V61.8205H20.9298V94.7753H12.0834V61.8205H0.690186V54.3038H32.4355ZM62.9557 94.7753V78.9937H47.5735V94.7753H38.6147V54.3038H47.5735V71.8802H62.9557V54.3038H71.9184V94.7753H62.9557ZM81.509 94.7753V54.3038H108.393V61.4135H90.4678V71.3569H106.021V78.4665H90.4678V87.6617H108.393V94.7714L81.509 94.7753ZM840.448 53.2959C846.864 53.2959 851.039 55.3544 855.218 58.4711L851.454 65.4141C848.453 63.1191 845.158 61.4135 840.51 61.4135C832.156 61.4135 827.097 67.1818 827.097 74.5357C827.097 81.8895 832.156 87.654 840.51 87.654C845.158 87.654 848.453 85.9483 851.454 83.6534L855.218 90.5963C851.039 93.717 846.864 95.7754 840.448 95.7754C826.504 95.7754 817.856 86.0064 817.856 74.5357C817.856 63.0649 826.504 53.2959 840.448 53.2959ZM879.334 53.2959C891.1 53.2959 900.69 62.8284 900.69 74.5357C900.69 86.2429 891.1 95.7754 879.334 95.7754C867.507 95.7754 857.916 86.2429 857.916 74.5357C857.916 62.8284 867.507 53.2959 879.334 53.2959ZM879.334 87.4253C886.099 87.4253 891.689 82.0717 891.689 74.5395C891.689 67.0073 886.099 61.6538 879.334 61.6538C872.508 61.6538 866.917 67.0073 866.917 74.5395C866.917 82.0717 872.508 87.4253 879.334 87.4253Z" fill="#C3D9CA"/>
</svg>
