<svg width="279" height="46" viewBox="0 0 279 46" fill="none" xmlns="http://www.w3.org/2000/svg">
<path d="M56.1528 10.7158C57.3563 10.7158 58.5611 10.8874 59.7407 11.2078H69.3261V15.9021C68.0973 15.9021 66.8685 15.9273 65.6146 15.9273C66.205 16.9844 66.5973 18.2864 66.5973 19.5404C66.5973 24.9967 62.149 28.3386 56.1516 28.3386C55.1436 28.3386 54.234 28.2402 53.424 28.0686C53.0304 28.4862 52.5636 29.0766 52.5636 29.7402C52.5636 30.5513 53.2524 30.9689 54.0624 30.9689H60.7715C65.515 30.9689 69.4965 32.7881 69.4965 37.9C69.4965 43.2087 63.9178 45.593 56.9628 45.593C50.2777 45.593 45.3374 43.6755 45.3374 39.2032C45.3374 37.0648 46.6406 35.32 48.6061 34.2137C47.8441 33.6977 47.1314 32.7881 47.1314 31.1165C47.1314 29.3226 48.3109 27.9462 49.8097 26.7666C47.327 25.2919 45.6806 22.7599 45.6806 19.5404C45.6806 14.0841 50.1541 10.717 56.1504 10.717L56.1528 10.7158ZM52.2457 35.8828C51.7045 36.3496 51.1885 36.964 51.1885 37.9468C51.1885 39.6675 53.1048 40.4787 56.9148 40.4787C61.3883 40.4787 63.5014 39.5943 63.5014 37.9468C63.5014 36.6688 62.371 35.8828 60.5771 35.8828H52.2457ZM56.1528 23.6431C59.1023 23.6431 60.8471 22.0207 60.8471 19.538C60.8471 17.0312 59.1023 15.4341 56.1528 15.4341C53.2032 15.4341 51.4345 17.0312 51.4345 19.538C51.4345 22.0207 53.2044 23.6431 56.1528 23.6431ZM82.7946 10.7158C90.0448 10.7158 95.4027 16.0497 95.4027 23.0047C95.4027 29.9598 90.0448 35.2936 82.7946 35.2936C75.5444 35.2936 70.1865 29.985 70.1865 23.0047C70.1865 16.0245 75.5684 10.7158 82.7946 10.7158ZM82.7946 29.5914C86.5061 29.5914 89.1353 26.7894 89.1353 23.0047C89.1353 19.244 86.5061 16.442 82.7946 16.442C79.1083 16.442 76.4539 19.244 76.4539 23.0047C76.4539 26.7894 79.1083 29.5914 82.7946 29.5914ZM110.561 10.7158C117.811 10.7158 123.169 16.0497 123.169 23.0047C123.169 29.9598 117.811 35.2936 110.561 35.2936C103.311 35.2936 97.9527 29.985 97.9527 23.0047C97.9527 16.0245 103.335 10.7158 110.561 10.7158ZM110.561 29.5914C114.272 29.5914 116.901 26.7894 116.901 23.0047C116.901 19.244 114.272 16.442 110.561 16.442C106.874 16.442 104.22 19.244 104.22 23.0047C104.22 26.7894 106.874 29.5914 110.561 29.5914ZM125.636 22.9795C125.636 15.8025 130.38 10.7158 137.065 10.7158C140.849 10.7158 143.283 12.0921 144.856 14.0589V0.171596H151.05V34.8017H144.856L144.734 32.2949C143.161 34.1141 140.531 35.2936 137.066 35.2936C130.381 35.2936 125.637 30.1074 125.637 22.9807L125.636 22.9795ZM138.367 16.3688C134.606 16.3688 131.977 19.1456 131.977 22.9555C131.977 26.691 134.606 29.6406 138.367 29.6406C142.078 29.6406 144.782 26.691 144.782 22.9555C144.782 19.1948 142.078 16.3688 138.367 16.3688ZM155.201 34.8017V0.196796H161.493V19.8344H165.179L170.488 11.2078H177.492L170.143 22.6363L179.016 34.8017H171.594L164.983 25.2907H161.494M161.494 25.2907V34.8017H155.201M180.763 3.63712C180.763 1.49877 182.238 0 184.376 0C186.514 0 188.013 1.47477 188.013 3.63712C188.013 5.77548 186.514 7.25024 184.376 7.25024C182.238 7.25024 180.763 5.77548 180.763 3.63712ZM181.23 34.8017V11.2078H187.546V34.8017H181.23ZM214.014 19.982V34.8017H207.698V21.6031C207.698 18.3344 205.584 16.5644 202.832 16.5644C200.054 16.5644 197.596 18.3344 197.596 21.6031V34.8017H191.305V11.2078H197.302L197.425 13.9353C198.653 12.2889 201.185 10.7158 204.7 10.7158C210.156 10.7158 214.015 14.3037 214.015 19.982H214.014ZM216.537 22.9795C216.537 15.8025 221.28 10.7158 227.965 10.7158C231.75 10.7158 234.183 12.0921 235.757 14.0589V0.171596H241.951V34.8017H235.757L235.634 32.2949C234.061 34.1141 231.432 35.2936 227.966 35.2936C221.281 35.2936 216.538 30.1074 216.538 22.9807L216.537 22.9795ZM229.267 16.3688C225.506 16.3688 222.877 19.1456 222.877 22.9555C222.877 26.691 225.506 29.6406 229.267 29.6406C232.979 29.6406 235.682 26.691 235.682 22.9555C235.682 19.1948 232.979 16.3688 229.267 16.3688Z" fill="#283434"/>
<path opacity="0.8" d="M9.82659 16.7529V19.0796H6.26507V29.2806H3.52672V19.0796H0V16.7529H9.82659ZM19.274 29.2806V24.3955H14.5125V29.2806H11.7393V16.7529H14.5125V22.1935H19.274V16.7529H22.0483V29.2806H19.274ZM25.0171 29.2806V16.7529H33.3389V18.9536H27.7902V22.0315H32.6045V24.2323H27.7902V27.0786H33.3389V29.2794L25.0171 29.2806ZM259.943 16.4409C261.929 16.4409 263.221 17.078 264.515 18.0428L263.35 20.192C262.421 19.4816 261.401 18.9536 259.962 18.9536C257.376 18.9536 255.81 20.7392 255.81 23.0155C255.81 25.2919 257.376 27.0762 259.962 27.0762C261.401 27.0762 262.421 26.5482 263.35 25.8379L264.515 27.987C263.221 28.953 261.929 29.5902 259.943 29.5902C255.626 29.5902 252.949 26.5662 252.949 23.0155C252.949 19.4648 255.626 16.4409 259.943 16.4409ZM271.98 16.4409C275.622 16.4409 278.59 19.3916 278.59 23.0155C278.59 26.6394 275.622 29.5902 271.98 29.5902C268.319 29.5902 265.35 26.6394 265.35 23.0155C265.35 19.3916 268.319 16.4409 271.98 16.4409ZM271.98 27.0054C274.074 27.0054 275.804 25.3483 275.804 23.0167C275.804 20.6852 274.074 19.028 271.98 19.028C269.867 19.028 268.136 20.6852 268.136 23.0167C268.136 25.3483 269.867 27.0054 271.98 27.0054Z" fill="#3D4947"/>
</svg>
